<svg aria-hidden="true" style="position: absolute; width: 0; height: 0; overflow: hidden;" version="1.1" xmlns="http://www.w3.org/2000/svg" xmlns:xlink="http://www.w3.org/1999/xlink">
<defs>
<symbol id="icon-basket-2" viewBox="0 0 36 32">
<path d="M2.882 1.602c-0.442 0-0.801-0.359-0.801-0.801s0.359-0.801 0.801-0.801h5.171c0.356 0 0.658 0.231 0.761 0.553l2.391 6.239h24.26c0.442 0 0.801 0.359 0.801 0.801 0 0.096-0.017 0.189-0.048 0.274l-4.23 14.088c-0.104 0.347-0.422 0.572-0.767 0.572v0.001h-15.346c-0.308 0-0.588 0.126-0.791 0.329s-0.329 0.483-0.329 0.791v0.022c0 0.309 0.126 0.59 0.328 0.792l0.002-0.002c0.203 0.203 0.483 0.329 0.791 0.329h13.912c0.443 0 0.801 0.359 0.801 0.801s-0.359 0.801-0.801 0.801h-13.912c-0.75 0-1.431-0.306-1.924-0.798l0.002-0.002-0.002-0.002c-0.492-0.492-0.798-1.172-0.798-1.92v-0.022c0-0.75 0.306-1.431 0.798-1.923s1.173-0.798 1.924-0.798h14.752l3.763-12.532h-22.57l3.859 10.072c0.157 0.413-0.050 0.876-0.464 1.033s-0.876-0.050-1.033-0.464l-4.261-11.12c-0.010-0.024-0.020-0.048-0.028-0.073l-2.391-6.24-4.623 0zM27.642 28.193c0.98 0 1.776 0.795 1.776 1.775s-0.795 1.776-1.776 1.776c-0.98 0-1.775-0.795-1.775-1.776s0.795-1.775 1.775-1.775zM16.872 28.193c0.98 0 1.775 0.795 1.775 1.775s-0.795 1.776-1.775 1.776c-0.981 0-1.776-0.795-1.776-1.776s0.795-1.775 1.776-1.775z"></path>
</symbol>
<symbol id="icon-comparison" viewBox="0 0 32 32">
<path d="M15.271 1.947c0 0.372-0.271 0.677-0.643 0.711-7.449 0.305-13.273 6.4-13.273 13.849 0 4.334 1.998 8.364 5.418 11.005v-5.248c0-0.372 0.305-0.677 0.677-0.677s0.677 0.305 0.677 0.677v6.772c0 0.372-0.305 0.677-0.677 0.677h-6.772c-0.372 0-0.677-0.305-0.677-0.677s0.305-0.677 0.677-0.677h4.978c-3.555-2.878-5.655-7.246-5.655-11.851 0-8.194 6.4-14.865 14.56-15.237 0.372 0 0.677 0.305 0.711 0.677l0-0zM24.82 4.656h4.977c0.372 0 0.677-0.305 0.677-0.677s-0.305-0.677-0.677-0.677h-6.772c-0.372 0-0.677 0.305-0.677 0.677v6.772c0 0.372 0.305 0.677 0.677 0.677s0.677-0.305 0.677-0.677v-5.248c3.42 2.641 5.418 6.671 5.418 11.005 0 7.415-5.79 13.51-13.206 13.883-0.372 0.034-0.677 0.339-0.643 0.711s0.305 0.643 0.677 0.643h0.034c8.127-0.406 14.492-7.077 14.492-15.237 0-4.605-2.099-8.973-5.655-11.851l0-0z"></path>
</symbol>
<symbol id="icon-favorite" viewBox="0 0 36 32">
<path d="M18.134 6.969c0.885-1.53 1.822-2.74 2.942-3.632 1.514-1.205 3.307-1.807 5.675-1.807 2.627 0 5.005 1.062 6.727 2.776 1.723 1.714 2.788 4.084 2.788 6.697 0 6.206-4.041 9.27-9.408 13.337-2.497 1.893-5.294 4.013-8.090 6.796-0.35 0.347-0.919 0.347-1.269 0-2.795-2.783-5.593-4.905-8.088-6.798-5.37-4.067-9.412-7.132-9.412-13.336 0-2.613 1.066-4.983 2.788-6.697s4.101-2.776 6.727-2.776c2.368 0 4.162 0.602 5.675 1.807 1.12 0.894 2.057 2.104 2.942 3.632l0.001-0zM22.193 4.728c-1.232 0.979-2.237 2.495-3.259 4.529-0.084 0.166-0.219 0.307-0.4 0.397-0.44 0.22-0.978 0.041-1.199-0.397-1.022-2.036-2.029-3.55-3.257-4.529-1.181-0.94-2.623-1.41-4.562-1.41-2.131 0-4.063 0.861-5.458 2.252-1.397 1.391-2.262 3.312-2.262 5.434 0 5.325 3.738 8.157 8.702 11.919 2.361 1.791 4.987 3.782 7.636 6.329 2.648-2.547 5.275-4.538 7.638-6.327 4.962-3.763 8.7-6.597 8.7-11.92 0-2.122-0.864-4.043-2.262-5.434-1.395-1.391-3.327-2.252-5.458-2.252-1.941 0-3.381 0.47-4.559 1.41l0-0z"></path>
</symbol>
<symbol id="icon-f-basket" viewBox="0 0 34 32">
<path d="M31.953 3.749h-24.594l-0.1-0.351h-0c-0.218-0.756-0.675-1.42-1.303-1.894s-1.392-0.731-2.178-0.734h-3.064c-0.395 0-0.714 0.32-0.714 0.714s0.32 0.714 0.714 0.714h3.064c0.476 0.002 0.939 0.157 1.319 0.444s0.657 0.689 0.789 1.146l4.327 15.182c0.286 0.991 0.886 1.863 1.709 2.484s1.826 0.959 2.858 0.962h15.759c0.394 0 0.714-0.32 0.714-0.714s-0.32-0.714-0.714-0.714h-15.759c-0.721-0.002-1.422-0.238-1.998-0.673s-0.995-1.044-1.195-1.737l-0.289-1.014h15.652c1.516-0.002 2.97-0.605 4.042-1.677s1.675-2.526 1.677-4.042v-7.384c0-0.394-0.32-0.714-0.714-0.714v-0zM31.238 11.847c-0.001 1.137-0.454 2.228-1.258 3.032s-1.895 1.257-3.032 1.258h-16.058l-2.246-7.881h15.434c0.394 0 0.714-0.32 0.714-0.714s-0.32-0.714-0.714-0.714h-15.841l-0.471-1.652h23.473l-0 6.67z"></path>
<path d="M13.553 24.63c-0.887 0-1.737 0.352-2.364 0.979s-0.979 1.477-0.979 2.364c0 0.886 0.352 1.737 0.979 2.364s1.477 0.979 2.364 0.979c0.887 0 1.737-0.352 2.364-0.979s0.979-1.477 0.979-2.364c-0.001-0.886-0.353-1.736-0.98-2.362s-1.476-0.979-2.362-0.981h0zM13.553 29.887c-0.508 0-0.995-0.202-1.354-0.561s-0.561-0.846-0.561-1.354c-0-0.508 0.202-0.995 0.561-1.354s0.846-0.561 1.354-0.561 0.995 0.202 1.354 0.561c0.359 0.359 0.561 0.846 0.561 1.354s-0.203 0.994-0.561 1.353-0.845 0.561-1.353 0.561l0 0z"></path>
<path d="M27.909 24.63c-0.887 0-1.737 0.352-2.364 0.979s-0.979 1.477-0.979 2.363c-0 0.887 0.352 1.737 0.979 2.364s1.477 0.979 2.363 0.979 1.737-0.352 2.364-0.979c0.627-0.627 0.979-1.477 0.979-2.364-0.001-0.886-0.354-1.736-0.98-2.362s-1.476-0.979-2.362-0.981v0zM27.909 29.887c-0.508 0-0.995-0.202-1.354-0.561s-0.561-0.846-0.561-1.354c0-0.508 0.202-0.995 0.561-1.354s0.846-0.561 1.354-0.561c0.508 0 0.995 0.202 1.354 0.561s0.561 0.846 0.561 1.354c-0 0.508-0.202 0.994-0.561 1.353s-0.845 0.561-1.353 0.561v0z"></path>
<path d="M26.923 8.052c0.134 0.13 0.313 0.204 0.5 0.207 0.096-0 0.19-0.020 0.279-0.057 0.085-0.035 0.163-0.086 0.229-0.15 0.067-0.067 0.121-0.148 0.157-0.236 0.116-0.267 0.053-0.578-0.157-0.779-0.065-0.066-0.143-0.12-0.228-0.157-0.267-0.114-0.576-0.051-0.779 0.157-0.21 0.201-0.272 0.512-0.157 0.779 0.036 0.088 0.089 0.168 0.157 0.236h0z"></path>
</symbol>
<symbol id="icon-f-logo" viewBox="0 0 29 32">
<path d="M25.018 20.622c-0.027-0.113-0.050-0.229-0.086-0.332v0c-0.142-0.462-0.383-0.887-0.706-1.246-0.484-0.536-1.132-0.896-1.842-1.024 0.053-0.58 0.103-1.249 0.146-1.989l0.080-1.581 0.033-0.855c0.010-0.177 0.010-0.354 0-0.53l-0.040-0.292-0.066-0.288v0c-0.174-0.613-0.521-1.163-0.999-1.584s-1.068-0.695-1.698-0.789c-0.369-0.038-0.739-0.055-1.11-0.050-1.326-0.020-2.724-0.030-4.106-0.030s-2.767 0-4.106 0.027h-0c-0.371-0.004-0.741 0.012-1.11 0.050-0.631 0.092-1.223 0.365-1.703 0.785s-0.829 0.97-1.004 1.584c-0.052 0.191-0.087 0.386-0.106 0.583-0.011 0.177-0.011 0.354 0 0.53l0.033 0.855 0.080 1.581c0.040 0.689 0.086 1.326 0.132 1.863-0.474 0.082-0.926 0.263-1.325 0.53-0.862 0.574-1.424 1.502-1.531 2.532v3.977c0 0.106 0 0.239 0.020 0.358s0.037 0.242 0.056 0.361c0.208 0.95 0.81 1.768 1.657 2.247 0.407 0.232 0.859 0.377 1.325 0.424 0.116 0 0.229 0 0.332 0.017h0.802l1.962-0.030c-0.891 0.891-1.776 2.32-1.826 3.125l0-0c0.113 0.118 0.24 0.223 0.378 0.312 0.11 0.089 0.23 0.165 0.358 0.225 0.994-0.391 2.575-2.502 2.794-3.688 2.021-0.037 3.894-0.083 5.554-0.136 0.106 1.15 1.763 3.413 2.804 3.821 0.147-0.072 0.285-0.161 0.411-0.265 0.121-0.077 0.233-0.168 0.332-0.272-0.053-0.881-1.094-2.479-2.055-3.341 0.961-0.036 1.829-0.073 2.598-0.116v0c0.222-0.050 0.367-0.263 0.332-0.487 0.009-0.204-0.132-0.384-0.332-0.424-3.072-0.166-7.814-0.285-13.306-0.361l-0.945 0c-0.235-0.031-0.46-0.11-0.663-0.232-0.415-0.25-0.706-0.662-0.802-1.137l-0.023-0.179v-4.020c0.055-0.491 0.328-0.932 0.742-1.202s0.928-0.34 1.4-0.192c0.472 0.148 0.853 0.499 1.039 0.957 0.046 0.113 0.077 0.231 0.093 0.351 0.020 0.144 0.028 0.289 0.023 0.434v1.14c-0.001 0.246 0.098 0.481 0.274 0.653s0.415 0.264 0.66 0.255c3.218 0 6.343-0.027 9.279-0.060h0.020c0.226 0 0.442-0.091 0.6-0.253s0.244-0.38 0.238-0.606v-1.325c-0.006-0.476 0.18-0.935 0.516-1.272s0.794-0.525 1.27-0.521c0.476 0.004 0.93 0.2 1.26 0.543 0.187 0.188 0.332 0.414 0.424 0.663l0.056 0.189 0.037 0.192v0.471l0.053 2.045 0.030 0.958v0.445c0 0.111-0.007 0.222-0.023 0.332-0.074 0.436-0.287 0.837-0.607 1.143-0.29 0.277-0.654 0.466-1.047 0.544-0.193 0.085-0.305 0.289-0.275 0.497-0.001 0.103 0.040 0.202 0.114 0.274s0.174 0.11 0.277 0.107c0.585-0.051 1.142-0.274 1.601-0.64 0.536-0.419 0.919-1.002 1.090-1.66 0.040-0.18 0.066-0.363 0.076-0.547 0-0.186 0-0.332 0.020-0.481l0.030-0.958 0.053-2.045v-0.6c-0.016-0.103-0.033-0.219-0.049-0.341l0 0zM19.977 18.485c-0.466 0.301-0.851 0.71-1.123 1.193-0.273 0.499-0.419 1.058-0.424 1.627v0.457c-2.423-0.023-4.951-0.040-7.546-0.046v-0.235c0.005-0.235-0.008-0.47-0.040-0.702-0.036-0.257-0.103-0.508-0.199-0.749-0.381-0.983-1.188-1.74-2.194-2.058-0.189-0.058-0.383-0.099-0.58-0.123 0.049-0.543 0.093-1.156 0.132-1.839l0.080-1.581 0.033-0.855h0c0.003-0.117 0.012-0.233 0.030-0.348 0.018-0.101 0.043-0.201 0.076-0.298 0.146-0.394 0.432-0.722 0.802-0.921 0.193-0.101 0.403-0.163 0.62-0.182 0.166-0.020 0.553 0 0.878 0 1.325 0.020 2.724 0.027 4.106 0.027s2.767 0 4.106-0.030c0.332 0 0.712-0.020 0.878 0h0c0.214 0.023 0.421 0.087 0.61 0.189 0.374 0.202 0.66 0.535 0.805 0.935l0.046 0.149 0.030 0.152c0.017 0.116 0.027 0.234 0.030 0.351l0.033 0.855 0.076 1.577c0.043 0.729 0.090 1.385 0.142 1.955-0.501 0.060-0.982 0.231-1.408 0.5l-0-0z"></path>
<path d="M23.208 6.866c0.043-1.786 0.079-3.741 0.103-5.965h0c0.003-0.225-0.084-0.442-0.242-0.603s-0.372-0.253-0.597-0.255h-0.017l-3.344-0.033c-0.234-0.002-0.46 0.090-0.626 0.255s-0.261 0.389-0.262 0.624v1.727l-3.046-2.416c-0.159-0.128-0.357-0.198-0.562-0.198s-0.403 0.070-0.562 0.198c-5.614 4.59-10.86 9.024-13.587 11.566-0.116 0.109-0.073 0.358 0.096 0.547s0.358 0.242 0.474 0.159c2.943-2.068 8.119-6.065 13.577-10.406l3.927 3.168c0.179 0.143 0.405 0.213 0.634 0.196s0.442-0.12 0.598-0.288c0.156-0.168 0.242-0.389 0.243-0.618v-2.731h1.597c0.027 1.988 0.060 3.791 0.103 5.432v0.040c0.006 0.212 0.107 0.41 0.275 0.54 2.651 2.075 4.736 3.645 6.237 4.686 0.126 0.089 0.355 0 0.504-0.205s0.156-0.388 0.056-0.484c-1.295-1.22-3.155-2.864-5.581-4.934l0 0z"></path>
</symbol>
<symbol id="icon-f-search" viewBox="0 0 30 32">
<path d="M19.655 22.74c-2.035 1.459-4.523 2.318-7.212 2.318-6.871 0-12.443-5.61-12.443-12.529s5.571-12.529 12.443-12.529c6.871 0 12.443 5.61 12.443 12.529 0 3.46-1.392 6.592-3.645 8.859l8.779 8.84c0.403 0.405 0.392 1.055-0.012 1.462-0.407 0.41-1.054 0.413-1.452 0.012l-8.9-8.963zM12.442 23.584c6.063 0 10.979-4.95 10.979-11.055s-4.916-11.055-10.979-11.055c-6.063 0-10.979 4.95-10.979 11.055s4.916 11.055 10.979 11.055z"></path>
</symbol>
<symbol id="icon-star" viewBox="0 0 32 32">
<path fill="#f5cc26" style="fill: var(--color2, #f5cc26)" d="M10.845 10.491c0.322-0.034 0.593-0.231 0.725-0.527l4.43-9.964 4.43 9.963c0.131 0.297 0.402 0.493 0.725 0.527l10.845 1.134-8.107 7.292c-0.241 0.217-0.345 0.535-0.278 0.853l2.273 10.664-9.44-5.457c-0.281-0.162-0.616-0.162-0.897 0l-9.44 5.457 2.273-10.664c0.068-0.318-0.036-0.637-0.277-0.853l-8.107-7.292 10.845-1.133z"></path>
</symbol>
</defs>
</svg>
