<svg aria-hidden="true" style="position: absolute; width: 0; height: 0; overflow: hidden;" version="1.1" xmlns="http://www.w3.org/2000/svg" xmlns:xlink="http://www.w3.org/1999/xlink">
<defs>
<symbol id="icon-right" viewBox="0 0 17 32">
<path d="M16.485 16c0.001 0.202-0.077 0.397-0.217 0.541l-14.983 15.235c-0.294 0.299-0.77 0.299-1.064 0s-0.294-0.783 0-1.081l14.459-14.694-14.459-14.694c-0.294-0.299-0.294-0.783 0-1.081s0.77-0.299 1.064 0l14.983 15.235c0.14 0.143 0.218 0.338 0.217 0.541v0z"></path>
</symbol>
<symbol id="icon-left" viewBox="0 0 17 32">
<path d="M0 16c-0.001-0.202 0.077-0.397 0.217-0.541l14.983-15.235c0.294-0.299 0.77-0.299 1.064 0s0.294 0.783 0 1.081l-14.459 14.694 14.459 14.694c0.294 0.299 0.294 0.783 0 1.081s-0.77 0.299-1.064 0l-14.983-15.235c-0.14-0.143-0.218-0.338-0.217-0.541v-0z"></path>
</symbol>
<symbol id="icon-comment" viewBox="0 0 34 32">
<path  d="M0 23.456h16.703l7.102 6.679v-6.679h8.332v-23.456h-32.137v23.456zM0.793 0.795h30.549v21.866h-8.332v5.645l-5.99-5.645h-16.227l-0-21.866z"></path>
</symbol>
<symbol id="icon-user" viewBox="0 0 30 32">
<path  d="M28.784 31.41h-28.255c-0.293 0-0.53-0.238-0.53-0.531v-1.416c0-8.098 6.575-14.687 14.657-14.687s14.657 6.589 14.657 14.687v1.416c0 0.293-0.237 0.531-0.53 0.531h0zM1.059 30.348h27.195v-0.885c0-7.513-6.1-13.626-13.598-13.626s-13.598 6.113-13.598 13.626v0.885z"></path>
<path  d="M14.657 15.749c-4.333 0-7.858-3.532-7.858-7.875s3.525-7.875 7.858-7.875c4.333 0 7.858 3.532 7.858 7.875s-3.525 7.875-7.858 7.875zM14.657 1.062c-3.749 0-6.799 3.056-6.799 6.813s3.050 6.813 6.799 6.813c3.749 0 6.799-3.056 6.799-6.813s-3.050-6.813-6.799-6.813z"></path>
</symbol>
<symbol id="icon-3" viewBox="0 0 32 32">
<path fill="#fff" style="fill: var(--color2, #fff)" d="M29.526 1.753h-27.053c-1.364 0-2.474 1.11-2.474 2.474v16.031c0 1.364 1.11 2.474 2.474 2.474h11.022c0.259 0 0.47-0.21 0.47-0.47s-0.21-0.47-0.47-0.47h-11.022c-0.846 0-1.534-0.688-1.534-1.534v-16.031c0-0.846 0.688-1.534 1.534-1.534h27.053c0.846 0 1.534 0.688 1.534 1.534v16.031c0 0.259 0.21 0.47 0.47 0.47s0.47-0.21 0.47-0.47v-16.031c0-1.364-1.11-2.474-2.474-2.474z"></path>
<path fill="#fff" style="fill: var(--color2, #fff)" d="M3.977 19.225h9.519c0.259 0 0.47-0.21 0.47-0.47s-0.21-0.47-0.47-0.47h-9.519c-0.259 0-0.47 0.21-0.47 0.47s0.21 0.47 0.47 0.47z"></path>
<path fill="#fff" style="fill: var(--color2, #fff)" d="M9.456 9.738v-2.004c0-0.811-0.66-1.472-1.472-1.472h-3.006c-0.811 0-1.472 0.66-1.472 1.472v2.004c0 0.811 0.66 1.472 1.472 1.472h3.006c0.811 0 1.472-0.66 1.472-1.472zM4.446 9.738v-0.532h0.532c0.259 0 0.47-0.21 0.47-0.47s-0.21-0.47-0.47-0.47h-0.532v-0.532c0-0.293 0.239-0.532 0.532-0.532h1.033v3.069h-1.033c-0.293 0-0.532-0.239-0.532-0.532zM7.984 10.27h-1.033v-3.069h1.033c0.294 0 0.532 0.239 0.532 0.532v0.532h-0.532c-0.259 0-0.47 0.21-0.47 0.47s0.21 0.47 0.47 0.47h0.532v0.532c0 0.293-0.239 0.532-0.532 0.532z"></path>
<path fill="#fff" style="fill: var(--color2, #fff)" d="M3.507 15.749c0 0.259 0.21 0.47 0.47 0.47s0.47-0.21 0.47-0.47v-1.002c0-0.259-0.21-0.47-0.47-0.47s-0.47 0.21-0.47 0.47v1.002z"></path>
<path fill="#fff" style="fill: var(--color2, #fff)" d="M5.010 14.748v1.002c0 0.259 0.21 0.47 0.47 0.47s0.47-0.21 0.47-0.47v-1.002c0-0.259-0.21-0.47-0.47-0.47s-0.47 0.21-0.47 0.47z"></path>
<path fill="#fff" style="fill: var(--color2, #fff)" d="M6.513 14.748v1.002c0 0.259 0.21 0.47 0.47 0.47s0.47-0.21 0.47-0.47v-1.002c0-0.259-0.21-0.47-0.47-0.47s-0.47 0.21-0.47 0.47z"></path>
<path fill="#fff" style="fill: var(--color2, #fff)" d="M8.016 14.748v1.002c0 0.259 0.21 0.47 0.47 0.47s0.47-0.21 0.47-0.47v-1.002c0-0.259-0.21-0.47-0.47-0.47s-0.47 0.21-0.47 0.47z"></path>
<path fill="#fff" style="fill: var(--color2, #fff)" d="M10.959 15.749v-1.002c0-0.259-0.21-0.47-0.47-0.47s-0.47 0.21-0.47 0.47v1.002c0 0.259 0.21 0.47 0.47 0.47s0.47-0.21 0.47-0.47z"></path>
<path fill="#fff" style="fill: var(--color2, #fff)" d="M12.462 15.749v-1.002c0-0.259-0.21-0.47-0.47-0.47s-0.47 0.21-0.47 0.47v1.002c0 0.259 0.21 0.47 0.47 0.47s0.47-0.21 0.47-0.47z"></path>
<path fill="#fff" style="fill: var(--color2, #fff)" d="M13.495 14.278c-0.259 0-0.47 0.21-0.47 0.47v1.002c0 0.259 0.21 0.47 0.47 0.47s0.47-0.21 0.47-0.47v-1.002c0-0.259-0.21-0.47-0.47-0.47z"></path>
<path fill="#fff" style="fill: var(--color2, #fff)" d="M15.468 15.749v-1.002c0-0.259-0.21-0.47-0.47-0.47s-0.47 0.21-0.47 0.47v1.002c0 0.259 0.21 0.47 0.47 0.47s0.47-0.21 0.47-0.47z"></path>
<path fill="#fff" style="fill: var(--color2, #fff)" d="M26.020 11.209c1.364 0 2.474-1.11 2.474-2.474s-1.11-2.474-2.474-2.474h-3.006c-1.364 0-2.474 1.11-2.474 2.474s1.11 2.474 2.474 2.474h3.006zM21.479 8.736c0-0.846 0.688-1.534 1.534-1.534h3.006c0.846 0 1.534 0.688 1.534 1.534s-0.688 1.534-1.534 1.534h-3.006c-0.846 0-1.534-0.688-1.534-1.534z"></path>
<path fill="#fff" style="fill: var(--color2, #fff)" d="M29.669 17.218c-0.107-0.074-0.239-0.1-0.366-0.073-0.427 0.092-0.857 0.139-1.28 0.139-2.085 0-3.997-1.059-5.113-2.833-0.086-0.137-0.236-0.22-0.398-0.22s-0.312 0.083-0.398 0.22c-1.116 1.774-3.028 2.833-5.113 2.833-0.422 0-0.853-0.047-1.28-0.139-0.127-0.027-0.259-0.001-0.366 0.073s-0.178 0.189-0.197 0.317c-0.086 0.576-0.129 1.155-0.129 1.721 0 4.923 3.084 9.535 7.333 10.966 0.049 0.016 0.099 0.025 0.15 0.025s0.101-0.008 0.15-0.025c4.249-1.431 7.333-6.043 7.333-10.966 0-0.566-0.044-1.145-0.129-1.721-0.019-0.128-0.091-0.243-0.197-0.317zM17.863 25.489c-1.222-1.844-1.894-4.058-1.894-6.233 0-0.363 0.020-0.733 0.058-1.103 0.326 0.046 0.652 0.070 0.975 0.070 1.934 0 3.738-0.788 5.041-2.158v13.028c-1.626-0.703-3.093-1.962-4.18-3.604zM27.162 25.489c-1.087 1.642-2.554 2.901-4.18 3.604v-13.028c1.304 1.37 3.107 2.158 5.041 2.158 0.323 0 0.649-0.023 0.975-0.070 0.039 0.371 0.058 0.74 0.058 1.103 0 2.175-0.673 4.389-1.894 6.233z"></path>
</symbol>
<symbol id="icon-4" viewBox="0 0 32 32">
<path fill="#fff" style="fill: var(--color2, #fff)" d="M29.968 11.918c-1.093 0-1.983 0.89-1.983 1.983v3.022c-0.648-0.203-1.39-0.049-1.904 0.465l-3.961 3.961c-3.546 1.212-4.253 4.911-4.391 6.221h-0.054c-0.272 0-0.495 0.222-0.495 0.494v3.096c0 0.133 0.054 0.257 0.143 0.351 0.094 0.094 0.218 0.143 0.351 0.143l8.026-0.020c0.272 0 0.495-0.222 0.495-0.494v-3.076c0-0.272-0.222-0.495-0.495-0.495h-0.035c0.079-0.297 0.232-0.569 0.45-0.791l5.020-5.020c0.524-0.524 0.811-1.221 0.811-1.963l-0-5.895c0.005-1.093-0.885-1.983-1.978-1.983l0-0zM25.205 30.652l-7.037 0.015v-2.107h7.037v2.092zM30.962 19.801c0 0.48-0.188 0.925-0.524 1.266l-5.020 5.015c-0.405 0.405-0.673 0.915-0.772 1.469h-5.919c0.143-1.221 0.806-4.332 3.818-5.301 0.074-0.025 0.143-0.064 0.198-0.124l4.045-4.045c0.351-0.351 0.925-0.351 1.276 0 0.168 0.168 0.262 0.396 0.262 0.638s-0.094 0.465-0.262 0.638l-2.567 2.562c-0.193 0.193-0.193 0.505 0 0.697s0.504 0.193 0.697 0l2.567-2.562c0.653-0.658 0.727-1.676 0.218-2.413v-3.749c0-0.549 0.445-0.994 0.994-0.994s0.989 0.455 0.989 1.004l-0 5.9z"></path>
<path fill="#fff" style="fill: var(--color2, #fff)" d="M14.573 27.576h-0.054c-0.138-1.31-0.846-5.010-4.391-6.221l-3.961-3.961c-0.514-0.514-1.251-0.668-1.904-0.465v-3.022c0-1.093-0.89-1.983-1.983-1.983-1.088-0.005-1.978 0.885-1.978 1.978v5.9c0 0.742 0.287 1.439 0.816 1.963l5.020 5.020c0.222 0.222 0.371 0.494 0.45 0.791h-0.035c-0.272 0-0.495 0.222-0.495 0.495v3.076c0 0.272 0.222 0.494 0.495 0.494l8.026 0.020c0.129 0 0.257-0.054 0.351-0.143 0.094-0.094 0.143-0.218 0.143-0.351v-3.096c-0.005-0.272-0.223-0.494-0.5-0.494v0zM1.814 21.067c-0.336-0.341-0.524-0.786-0.524-1.266v-5.9c0-0.549 0.445-0.994 0.994-0.994s0.994 0.445 0.994 0.994v3.749c-0.509 0.737-0.435 1.756 0.218 2.413l2.567 2.562c0.193 0.193 0.505 0.193 0.697 0s0.193-0.505 0-0.697l-2.567-2.562c-0.351-0.351-0.351-0.925 0-1.276s0.925-0.351 1.276 0l4.045 4.045c0.054 0.054 0.124 0.099 0.198 0.124 3.046 0.979 3.684 4.075 3.818 5.301h-5.929c-0.099-0.554-0.366-1.063-0.772-1.469l-5.015-5.024zM14.078 30.666l-7.037-0.015v-2.087h7.037v2.102z"></path>
<path fill="#fff" style="fill: var(--color2, #fff)" d="M21.764 8.323c0-3.111-2.527-5.638-5.638-5.638s-5.638 2.527-5.638 5.638c0 3.111 2.527 5.638 5.638 5.638s5.638-2.527 5.638-5.638zM16.126 12.972c-2.562 0-4.649-2.087-4.649-4.649s2.087-4.649 4.649-4.649 4.649 2.087 4.649 4.649c0 2.562-2.087 4.649-4.649 4.649z"></path>
<path fill="#fff" style="fill: var(--color2, #fff)" d="M19.577 20.058c0.089 0.153 0.252 0.247 0.43 0.247h0.044c0.193-0.015 0.356-0.143 0.42-0.321l1.019-2.775 2.913 0.505c0.193 0.035 0.381-0.049 0.49-0.203 0.109-0.158 0.119-0.366 0.025-0.529l-2.285-3.956c0.292-0.099 0.549-0.252 0.712-0.529 0.282-0.49 0.074-1.058-0.104-1.563-0.094-0.257-0.218-0.608-0.183-0.747 0.035-0.124 0.321-0.366 0.509-0.524 0.42-0.351 0.89-0.747 0.89-1.33s-0.475-0.979-0.89-1.33c-0.193-0.158-0.48-0.4-0.509-0.524-0.040-0.138 0.089-0.489 0.183-0.747 0.183-0.505 0.391-1.073 0.104-1.563-0.287-0.494-0.89-0.603-1.419-0.697-0.267-0.044-0.628-0.109-0.722-0.208-0.099-0.099-0.163-0.46-0.208-0.727-0.094-0.534-0.203-1.133-0.697-1.419-0.489-0.282-1.058-0.079-1.563 0.104-0.257 0.094-0.608 0.218-0.747 0.183-0.124-0.035-0.366-0.321-0.524-0.514-0.351-0.42-0.747-0.89-1.33-0.89s-0.979 0.475-1.33 0.89c-0.158 0.193-0.4 0.48-0.524 0.514-0.138 0.035-0.49-0.089-0.747-0.183-0.505-0.183-1.073-0.391-1.563-0.104-0.495 0.287-0.603 0.89-0.697 1.419-0.044 0.267-0.109 0.628-0.208 0.727s-0.46 0.163-0.727 0.208c-0.544 0.084-1.143 0.188-1.429 0.683-0.282 0.489-0.074 1.058 0.104 1.563 0.094 0.257 0.218 0.608 0.183 0.747-0.035 0.124-0.321 0.366-0.514 0.524-0.42 0.351-0.89 0.747-0.89 1.33s0.475 0.979 0.89 1.33c0.193 0.158 0.48 0.401 0.509 0.524 0.040 0.138-0.089 0.49-0.183 0.747-0.183 0.505-0.391 1.073-0.104 1.563 0.158 0.277 0.42 0.43 0.712 0.529l-2.285 3.956c-0.094 0.168-0.089 0.371 0.025 0.529 0.109 0.158 0.297 0.237 0.49 0.203l2.913-0.505 1.019 2.775c0.064 0.178 0.232 0.307 0.42 0.321h0.044c0.173 0 0.341-0.094 0.43-0.247l2.334-4.045c0.302 0.336 0.648 0.643 1.118 0.643s0.816-0.307 1.118-0.643l2.334 4.060zM21.254 16.162c-0.237-0.040-0.465 0.094-0.549 0.316l-0.796 2.171-1.948-3.378c0.010-0.005 0.020-0.015 0.025-0.015 0.138-0.035 0.49 0.089 0.747 0.183 0.505 0.183 1.073 0.386 1.563 0.104 0.495-0.287 0.603-0.89 0.697-1.419 0.044-0.267 0.109-0.628 0.208-0.722 0.064-0.064 0.237-0.109 0.42-0.148l1.909 3.308-2.275-0.4zM12.347 18.649l-0.796-2.171c-0.084-0.222-0.311-0.356-0.549-0.316l-2.28 0.396 1.914-3.308c0.188 0.040 0.361 0.089 0.42 0.148 0.099 0.099 0.163 0.46 0.208 0.727 0.094 0.534 0.203 1.132 0.697 1.419 0.49 0.282 1.058 0.079 1.563-0.104 0.257-0.094 0.608-0.218 0.747-0.183 0.010 0 0.020 0.015 0.030 0.015l-1.953 3.378zM16.126 15.667c-0.124 0-0.415-0.351-0.574-0.539-0.297-0.351-0.603-0.717-1.029-0.831-0.104-0.030-0.208-0.040-0.311-0.040-0.341 0-0.687 0.124-1.024 0.247-0.218 0.079-0.628 0.227-0.732 0.178-0.094-0.054-0.178-0.514-0.218-0.737-0.079-0.46-0.163-0.935-0.485-1.251-0.316-0.316-0.791-0.4-1.251-0.485-0.222-0.040-0.683-0.119-0.737-0.218-0.049-0.104 0.099-0.514 0.178-0.732 0.158-0.44 0.327-0.9 0.208-1.34-0.114-0.425-0.48-0.732-0.831-1.029-0.188-0.158-0.539-0.455-0.539-0.574 0-0.124 0.351-0.416 0.539-0.574 0.351-0.297 0.717-0.603 0.831-1.029 0.119-0.44-0.049-0.895-0.208-1.34-0.079-0.218-0.227-0.628-0.178-0.732 0.054-0.094 0.514-0.178 0.737-0.218 0.46-0.079 0.935-0.163 1.251-0.485 0.316-0.316 0.4-0.791 0.485-1.251 0.040-0.222 0.119-0.683 0.218-0.737 0.104-0.044 0.514 0.099 0.732 0.178 0.44 0.158 0.9 0.327 1.34 0.208 0.425-0.114 0.732-0.48 1.029-0.831 0.158-0.188 0.455-0.539 0.574-0.539s0.415 0.351 0.574 0.539c0.297 0.351 0.603 0.717 1.029 0.831 0.44 0.119 0.895-0.049 1.34-0.208 0.218-0.079 0.628-0.227 0.732-0.178 0.099 0.054 0.178 0.514 0.218 0.737 0.079 0.46 0.163 0.935 0.485 1.251 0.316 0.316 0.791 0.4 1.251 0.48 0.222 0.040 0.683 0.119 0.737 0.218 0.049 0.104-0.099 0.514-0.178 0.732-0.158 0.44-0.326 0.9-0.208 1.34 0.114 0.425 0.48 0.732 0.831 1.029 0.188 0.158 0.539 0.45 0.539 0.574s-0.351 0.415-0.539 0.574c-0.351 0.297-0.717 0.603-0.831 1.029-0.119 0.44 0.049 0.895 0.208 1.34 0.079 0.222 0.227 0.628 0.178 0.732-0.054 0.094-0.514 0.178-0.737 0.218-0.46 0.079-0.935 0.163-1.251 0.485-0.316 0.316-0.4 0.791-0.485 1.251-0.040 0.222-0.119 0.683-0.218 0.737-0.104 0.044-0.514-0.099-0.732-0.178-0.44-0.158-0.9-0.327-1.34-0.208-0.425 0.114-0.732 0.48-1.029 0.831-0.163 0.193-0.455 0.544-0.579 0.544h-0z"></path>
<path fill="#fff" style="fill: var(--color2, #fff)" d="M18.48 6.043l-3.511 3.511-1.197-1.197c-0.193-0.193-0.505-0.193-0.697 0s-0.193 0.504 0 0.697l1.543 1.543c0.099 0.099 0.222 0.143 0.351 0.143s0.252-0.049 0.351-0.143l3.862-3.862c0.193-0.193 0.193-0.505 0-0.697s-0.509-0.188-0.702 0.005h-0z"></path>
</symbol>
<symbol id="icon-2" viewBox="0 0 32 32">
<path fill="#fff" style="fill: var(--color2, #fff)" d="M11.691 20.222l-3.357-1.53c-0.173-0.078-0.372-0.064-0.532 0.039s-0.255 0.278-0.255 0.468v3.060c0 0.218 0.127 0.416 0.326 0.507l3.357 1.529c0.073 0.034 0.152 0.050 0.231 0.050 0.105 0 0.21-0.030 0.301-0.089 0.159-0.102 0.255-0.278 0.255-0.468v-3.060c0-0.218-0.127-0.416-0.325-0.506v0zM10.904 22.924l-2.244-1.023v-1.837l2.244 1.023v1.837z"></path>
<path fill="#fff" style="fill: var(--color2, #fff)" d="M24.173 18.732c-0.16-0.103-0.359-0.117-0.532-0.038l-3.357 1.53c-0.198 0.090-0.325 0.289-0.325 0.507v3.060c0 0.189 0.096 0.365 0.255 0.468 0.091 0.059 0.196 0.089 0.301 0.089 0.078 0 0.157-0.017 0.231-0.050l3.357-1.529c0.199-0.090 0.326-0.288 0.326-0.507v-3.060c0-0.189-0.096-0.365-0.255-0.468v0zM23.315 21.901l-2.244 1.023v-1.837l2.244-1.023v1.837z"></path>
<path fill="#fff" style="fill: var(--color2, #fff)" d="M28.192 12.086c-0.007-0.018-0.015-0.034-0.023-0.051-0.022-0.044-0.049-0.084-0.081-0.121-0.011-0.012-0.020-0.026-0.032-0.037-0.044-0.041-0.093-0.078-0.15-0.104l-0.014-0.006h-0l-5.782-2.633v-3.29c0-3.222-2.621-5.843-5.843-5.843s-5.843 2.621-5.843 5.843v2.504h-1.67c-0.233 0-0.441 0.145-0.522 0.363s-0.017 0.464 0.16 0.616l0.364 0.312-4.685 2.134c-0.057 0.026-0.106 0.063-0.15 0.104-0.012 0.011-0.021 0.025-0.033 0.037-0.033 0.037-0.060 0.077-0.081 0.121-0.008 0.017-0.017 0.033-0.023 0.051-0.023 0.062-0.039 0.126-0.039 0.194v13.84c0 0.218 0.127 0.416 0.326 0.507l11.687 5.323c0.008 0.004 0.017 0.002 0.025 0.005 0.066 0.026 0.134 0.045 0.205 0.045 0.002 0 0.003-0.001 0.005-0.001 0.068-0.001 0.135-0.018 0.199-0.043 0.009-0.003 0.018-0.002 0.027-0.006l11.687-5.323c0.199-0.091 0.326-0.288 0.326-0.507v-13.84c0-0.068-0.016-0.132-0.039-0.194v-0zM10.979 9.461c0.308 0 0.556-0.249 0.556-0.557v-3.061c0-2.608 2.122-4.73 4.73-4.73s4.73 2.122 4.73 4.73v5.287h-2.226v-5.287c0-1.381-1.123-2.504-2.504-2.504s-2.504 1.123-2.504 2.504v3.061c0 0.307 0.249 0.557 0.557 0.557h0.722l-2.391 2.050-2.264-1.94c-0.006-0.019-0.005-0.038-0.013-0.056-0.009-0.021-0.027-0.034-0.039-0.053h0.646zM9.687 10.437l2.599 2.228c0.104 0.090 0.233 0.134 0.362 0.134s0.258-0.044 0.362-0.134l3.896-3.339c0.177-0.152 0.241-0.397 0.16-0.616s-0.289-0.363-0.522-0.363h-1.669v-2.504c0-0.767 0.624-1.391 1.391-1.391s1.391 0.624 1.391 1.391v5.843c0 0.307 0.249 0.557 0.556 0.557h3.339c0.308 0 0.556-0.249 0.556-0.557v-1.33l4.223 1.923-10.344 4.711-10.344-4.712 4.043-1.842zM4.857 25.761v-12.617l10.574 4.816v12.617l-10.574-4.816zM16.544 30.578v-12.617l10.574-4.816v12.617l-10.574 4.816z"></path>
</symbol>
<symbol id="icon-1" viewBox="0 0 32 32">
<path fill="#fff" style="fill: var(--color2, #fff)" d="M28.080 12.262c-0.097-0.083-0.22-0.128-0.347-0.128h-5.333v-4.267c0-0.141-0.056-0.277-0.156-0.377s-0.236-0.156-0.377-0.156h-2.133v1.067h1.6v16.533h-12.848c-0.063-0.375-0.193-0.737-0.384-1.067h10.032c0.141 0 0.277-0.056 0.377-0.156s0.156-0.236 0.156-0.377v-9.6h1.067c0.141 0 0.277-0.056 0.377-0.156s0.156-0.236 0.156-0.377v-3.2c0-0.141-0.056-0.277-0.156-0.377s-0.236-0.156-0.377-0.156h-5.808l2.363-1.845c0.675-0.675 0.938-1.658 0.691-2.579s-0.967-1.641-1.888-1.888c-0.921-0.247-1.904 0.016-2.579 0.691l-0.043 0.053-1.269 1.632-1.269-1.632-0.043-0.053c-0.674-0.675-1.658-0.938-2.579-0.691s-1.641 0.967-1.888 1.888c-0.247 0.921 0.016 1.905 0.691 2.579l0.053 0.043 2.315 1.803h-5.813c-0.295 0-0.533 0.239-0.533 0.533v3.2c0 0.141 0.056 0.277 0.156 0.377s0.236 0.156 0.377 0.156h1.067v8.966c-0.824 0.477-1.393 1.296-1.552 2.235h-1.115v-16.533h1.6v-1.067h-2.133c-0.295 0-0.533 0.239-0.533 0.533v17.6c0 0.141 0.056 0.277 0.156 0.377s0.236 0.156 0.377 0.156h1.648c0.175 0.997 0.81 1.852 1.715 2.307s1.97 0.455 2.874 0c0.904-0.455 1.54-1.31 1.715-2.307h15.030c0.175 0.997 0.811 1.852 1.715 2.307s1.97 0.455 2.874 0c0.904-0.455 1.54-1.31 1.715-2.307h1.648c0.141 0 0.277-0.056 0.377-0.156s0.156-0.236 0.156-0.377v-9.6c0-0.156-0.068-0.304-0.187-0.405l-3.734-3.2zM9.066 22.801h-1.968c-0.523-0.347-1.137-0.533-1.765-0.533-0.179 0.003-0.357 0.019-0.533 0.048v-8.581h4.267v9.067zM12.266 22.801h-2.133v-9.067h2.133v9.067zM17.6 22.801h-4.267v-9.067h4.267v9.067zM6.848 6.843c-0.293-0.299-0.457-0.701-0.457-1.12s0.164-0.821 0.457-1.12c0.304-0.283 0.704-0.441 1.12-0.441s0.816 0.158 1.12 0.441l1.669 2.133c0.101 0.13 0.256 0.206 0.421 0.206s0.32-0.076 0.421-0.206l1.669-2.133c0.304-0.283 0.704-0.441 1.12-0.441s0.816 0.158 1.12 0.441c0.293 0.299 0.457 0.701 0.457 1.12s-0.164 0.821-0.457 1.12l-2.133 1.669c-0.495-0.737-1.325-1.179-2.213-1.179s-1.718 0.442-2.213 1.179l-2.101-1.669zM12.799 10.001c0 0.424-0.169 0.831-0.469 1.131s-0.707 0.469-1.131 0.469c-0.424 0-0.831-0.169-1.131-0.469s-0.469-0.707-0.469-1.131c0-0.424 0.169-0.831 0.469-1.131s0.707-0.469 1.131-0.469 0.831 0.169 1.131 0.469c0.3 0.3 0.469 0.707 0.469 1.131zM3.199 12.667v-2.133h5.387c0.165 0.81 0.695 1.498 1.437 1.863s1.611 0.365 2.352 0c0.742-0.365 1.273-1.053 1.437-1.863h5.387v2.133h-16zM5.333 27.601c-0.566 0-1.108-0.225-1.509-0.625s-0.625-0.943-0.625-1.509c0-0.566 0.225-1.108 0.625-1.509s0.943-0.625 1.509-0.625 1.108 0.225 1.509 0.625c0.4 0.4 0.625 0.943 0.625 1.509s-0.225 1.108-0.625 1.509c-0.4 0.4-0.943 0.625-1.509 0.625zM26.666 27.601c-0.566 0-1.108-0.225-1.509-0.625s-0.625-0.943-0.625-1.509c0-0.566 0.225-1.108 0.625-1.509s0.943-0.625 1.509-0.625 1.108 0.225 1.509 0.625c0.4 0.4 0.625 0.943 0.625 1.509s-0.225 1.108-0.625 1.509c-0.4 0.4-0.943 0.625-1.509 0.625zM30.933 22.267h-1.067v1.067h1.067v1.6h-1.115c-0.174-0.997-0.81-1.852-1.715-2.307s-1.97-0.454-2.874 0c-0.904 0.455-1.54 1.31-1.715 2.307h-1.115v-11.733h5.136l3.397 2.912v6.155z"></path>
<path fill="#fff" style="fill: var(--color2, #fff)" d="M26.666 14.267h-2.667c-0.295 0-0.533 0.239-0.533 0.533v5.867c0 0.141 0.056 0.277 0.156 0.377s0.236 0.156 0.377 0.156h5.333c0.141 0 0.277-0.056 0.377-0.156s0.156-0.236 0.156-0.377v-3.733c-0.001-0.162-0.075-0.315-0.203-0.416l-2.667-2.133c-0.094-0.075-0.21-0.117-0.331-0.117zM28.799 20.134h-4.267v-4.8h1.947l2.32 1.856v2.944z"></path>
<path fill="#fff" style="fill: var(--color2, #fff)" d="M10.666 8.934v0.533h-0.533v1.067h0.533v0.533h1.067v-0.533h0.533v-1.067h-0.533v-0.533h-1.067z"></path>
<path fill="#fff" style="fill: var(--color2, #fff)" d="M3.733 7.334h1.067v1.067h-1.067v-1.067z"></path>
<path fill="#fff" style="fill: var(--color2, #fff)" d="M17.599 7.334h1.067v1.067h-1.067v-1.067z"></path>
</symbol>
</defs>
</svg>
