<svg width="179" height="50" viewBox="0 0 179 50" fill="none" xmlns="http://www.w3.org/2000/svg">
<path d="M25.28 4.08V21.36C25.28 23.2533 25.7733 24.7067 26.76 25.72C27.7467 26.7067 29.1333 27.2 30.92 27.2C32.7333 27.2 34.1333 26.7067 35.12 25.72C36.1067 24.7067 36.6 23.2533 36.6 21.36V4.08H42.24V21.32C42.24 23.6933 41.72 25.7067 40.68 27.36C39.6667 28.9867 38.2933 30.2133 36.56 31.04C34.8533 31.8667 32.9467 32.28 30.84 32.28C28.76 32.28 26.8667 31.8667 25.16 31.04C23.48 30.2133 22.1467 28.9867 21.16 27.36C20.1733 25.7067 19.68 23.6933 19.68 21.32V4.08H25.28ZM60.7706 32L53.2506 22.56V32H47.6506V2.4H53.2506V19.24L60.6906 9.84H67.9706L58.2106 20.96L68.0506 32H60.7706ZM76.61 13.28C77.33 12.1067 78.2633 11.1867 79.41 10.52C80.5833 9.85333 81.9167 9.52 83.41 9.52V15.4H81.93C80.17 15.4 78.8367 15.8133 77.93 16.64C77.05 17.4667 76.61 18.9067 76.61 20.96V32H71.01V9.84H76.61V13.28ZM85.7419 20.84C85.7419 18.6 86.1819 16.6133 87.0619 14.88C87.9685 13.1467 89.1819 11.8133 90.7019 10.88C92.2485 9.94667 93.9685 9.48 95.8619 9.48C97.5152 9.48 98.9552 9.81333 100.182 10.48C101.435 11.1467 102.435 11.9867 103.182 13V9.84H108.822V32H103.182V28.76C102.462 29.8 101.462 30.6667 100.182 31.36C98.9285 32.0267 97.4752 32.36 95.8219 32.36C93.9552 32.36 92.2485 31.88 90.7019 30.92C89.1819 29.96 87.9685 28.6133 87.0619 26.88C86.1819 25.12 85.7419 23.1067 85.7419 20.84ZM103.182 20.92C103.182 19.56 102.915 18.4 102.382 17.44C101.849 16.4533 101.129 15.7067 100.222 15.2C99.3152 14.6667 98.3419 14.4 97.3019 14.4C96.2619 14.4 95.3019 14.6533 94.4219 15.16C93.5419 15.6667 92.8219 16.4133 92.2619 17.4C91.7285 18.36 91.4619 19.5067 91.4619 20.84C91.4619 22.1733 91.7285 23.3467 92.2619 24.36C92.8219 25.3467 93.5419 26.1067 94.4219 26.64C95.3285 27.1733 96.2885 27.44 97.3019 27.44C98.3419 27.44 99.3152 27.1867 100.222 26.68C101.129 26.1467 101.849 25.4 102.382 24.44C102.915 23.4533 103.182 22.28 103.182 20.92ZM117.131 7.2C116.145 7.2 115.318 6.89333 114.651 6.28C114.011 5.64 113.691 4.85333 113.691 3.92C113.691 2.98667 114.011 2.21333 114.651 1.6C115.318 0.959998 116.145 0.639998 117.131 0.639998C118.118 0.639998 118.931 0.959998 119.571 1.6C120.238 2.21333 120.571 2.98667 120.571 3.92C120.571 4.85333 120.238 5.64 119.571 6.28C118.931 6.89333 118.118 7.2 117.131 7.2ZM119.891 9.84V32H114.291V9.84H119.891ZM137.704 9.52C140.344 9.52 142.477 10.36 144.104 12.04C145.731 13.6933 146.544 16.0133 146.544 19V32H140.944V19.76C140.944 18 140.504 16.6533 139.624 15.72C138.744 14.76 137.544 14.28 136.024 14.28C134.477 14.28 133.251 14.76 132.344 15.72C131.464 16.6533 131.024 18 131.024 19.76V32H125.424V9.84H131.024V12.6C131.771 11.64 132.717 10.8933 133.864 10.36C135.037 9.8 136.317 9.52 137.704 9.52ZM172.469 20.44C172.469 21.24 172.416 21.96 172.309 22.6H156.109C156.243 24.2 156.803 25.4533 157.789 26.36C158.776 27.2667 159.989 27.72 161.429 27.72C163.509 27.72 164.989 26.8267 165.869 25.04H171.909C171.269 27.1733 170.043 28.9333 168.229 30.32C166.416 31.68 164.189 32.36 161.549 32.36C159.416 32.36 157.496 31.8933 155.789 30.96C154.109 30 152.789 28.6533 151.829 26.92C150.896 25.1867 150.429 23.1867 150.429 20.92C150.429 18.6267 150.896 16.6133 151.829 14.88C152.763 13.1467 154.069 11.8133 155.749 10.88C157.429 9.94667 159.363 9.48 161.549 9.48C163.656 9.48 165.536 9.93333 167.189 10.84C168.869 11.7467 170.163 13.04 171.069 14.72C172.003 16.3733 172.469 18.28 172.469 20.44ZM166.669 18.84C166.643 17.4 166.123 16.2533 165.109 15.4C164.096 14.52 162.856 14.08 161.389 14.08C160.003 14.08 158.829 14.5067 157.869 15.36C156.936 16.1867 156.363 17.3467 156.149 18.84H166.669Z" fill="black"/>
<!-- <rect x="4" y="38" width="172" height="3" fill="black"/>
<rect x="10" y="3" width="3" height="44" fill="black"/> -->
</svg>
