<svg width="20" height="20" viewBox="0 0 20 20" fill="none" xmlns="http://www.w3.org/2000/svg">
<path d="M17 6.89954C16.9318 7.01459 16.8546 7.12352 16.7692 7.22517L8.56635 15.7842C8.52424 15.8506 8.46706 15.905 8.39993 15.9427C8.33279 15.9803 8.25779 16 8.1816 16C8.10541 16 8.03041 15.9803 7.96328 15.9427C7.89615 15.905 7.83897 15.8506 7.79686 15.7842C6.25787 14.1279 4.71888 12.4689 3.17989 10.8072C3.12182 10.7616 3.07515 10.7021 3.04388 10.6336C3.01261 10.5651 2.99765 10.4897 3.0003 10.4139C3.00294 10.3381 3.02311 10.264 3.05907 10.1981C3.09503 10.1322 3.14572 10.0763 3.20682 10.0353L4.36106 8.94583C4.4025 8.8914 4.45516 8.84744 4.51512 8.81722C4.57507 8.78701 4.64077 8.77131 4.70734 8.77131C4.7739 8.77131 4.8396 8.78701 4.89956 8.81722C4.95951 8.84744 5.01217 8.8914 5.05361 8.94583L7.78146 11.8484C8.06618 12.15 8.27779 12.154 8.55096 11.8484L14.9224 5.21908C14.9639 5.15187 15.0208 5.0966 15.088 5.05833C15.1552 5.02005 15.2306 5 15.3071 5C15.3837 5 15.459 5.02005 15.5262 5.05833C15.5934 5.0966 15.6504 5.15187 15.6919 5.21908C16.0535 5.59698 16.4152 5.97488 16.7692 6.35681C16.8509 6.45684 16.9254 6.56299 16.9923 6.6744L17 6.89954Z" fill="#016601"/>
</svg>
