<svg width="18" height="22" viewBox="0 0 18 22" fill="none" xmlns="http://www.w3.org/2000/svg">
<path d="M7.86885 21.4854C7.40218 21.4854 6.96468 21.3854 6.55635 21.1854C6.14801 20.9854 5.80218 20.702 5.51885 20.3354L0.0688477 13.4104L0.543848 12.9104C0.877181 12.5604 1.27718 12.352 1.74385 12.2854C2.21051 12.2187 2.64385 12.3104 3.04385 12.5604L4.89385 13.6854V5.48535C4.89385 5.20202 4.98968 4.96452 5.18135 4.77285C5.37301 4.58118 5.61051 4.48535 5.89385 4.48535C6.17718 4.48535 6.41885 4.58118 6.61885 4.77285C6.81885 4.96452 6.91885 5.20202 6.91885 5.48535V17.2854L4.49385 15.7854L7.09385 19.1104C7.19385 19.227 7.31051 19.3187 7.44385 19.3854C7.57718 19.452 7.71885 19.4854 7.86885 19.4854H13.3938C13.9438 19.4854 14.4147 19.2895 14.8063 18.8979C15.198 18.5062 15.3938 18.0354 15.3938 17.4854V13.4854C15.3938 13.202 15.298 12.9645 15.1063 12.7729C14.9147 12.5812 14.6772 12.4854 14.3938 12.4854H8.91885V10.4854H14.3938C15.2272 10.4854 15.9355 10.777 16.5188 11.3604C17.1022 11.9437 17.3938 12.652 17.3938 13.4854V17.4854C17.3938 18.5854 17.0022 19.527 16.2188 20.3104C15.4355 21.0937 14.4938 21.4854 13.3938 21.4854H7.86885ZM1.56885 7.98535C1.35218 7.61868 1.18551 7.22285 1.06885 6.79785C0.952181 6.37285 0.893848 5.93535 0.893848 5.48535C0.893848 4.10202 1.38135 2.92285 2.35635 1.94785C3.33135 0.972852 4.51051 0.485352 5.89385 0.485352C7.27718 0.485352 8.45635 0.972852 9.43135 1.94785C10.4063 2.92285 10.8938 4.10202 10.8938 5.48535C10.8938 5.93535 10.8355 6.37285 10.7188 6.79785C10.6022 7.22285 10.4355 7.61868 10.2188 7.98535L8.49385 6.98535C8.62718 6.75202 8.72718 6.51452 8.79385 6.27285C8.86051 6.03118 8.89385 5.76868 8.89385 5.48535C8.89385 4.65202 8.60218 3.94368 8.01885 3.36035C7.43551 2.77702 6.72718 2.48535 5.89385 2.48535C5.06051 2.48535 4.35218 2.77702 3.76885 3.36035C3.18551 3.94368 2.89385 4.65202 2.89385 5.48535C2.89385 5.76868 2.92718 6.03118 2.99385 6.27285C3.06051 6.51452 3.16051 6.75202 3.29385 6.98535L1.56885 7.98535Z" fill="white"/>
</svg>
